<?xml version="1.0" encoding="utf-8"?>
<!-- Generator: Adobe Illustrator 26.3.1, SVG Export Plug-In . SVG Version: 6.00 Build 0)  -->
<svg version="1.1" id="Layer_1" xmlns="http://www.w3.org/2000/svg" xmlns:xlink="http://www.w3.org/1999/xlink" x="0px" y="0px"
	 viewBox="0 0 792 612" style="enable-background:new 0 0 792 612;" xml:space="preserve">
<style type="text/css">
	.st0{fill:#F1572A;}
	.st1{fill:#FCB917;}
	.st2{fill:#FFFFFF;}
</style>
<path d="M395.58,310.81c119.39,0,216,96.61,216,216h-216V310.81z"/>
<path class="st0" d="M611.58,310.81c0-119.29-96.71-216-216-216s-216,96.71-216,216"/>
<path class="st1" d="M554.58,213.49c0-28.76-10.82-54.99-28.6-74.86c-22.76-17.26-49.03-30.11-77.57-37.29
	c-2.04-0.11-4.09-0.17-6.15-0.17c-62.03,0-112.32,50.29-112.32,112.32c0,41.61,22.65,77.91,56.27,97.32h112.1
	C531.94,291.4,554.58,255.1,554.58,213.49z"/>
<path d="M395.58,94.81c-119.29,0-216,96.71-216,216s96.71,216,216,216"/>
<path class="st2" d="M507.9,198.49c0-40.31-21.24-75.66-53.13-95.47c-18.81-5.35-38.66-8.21-59.19-8.21s-40.38,2.86-59.19,8.21
	c-31.89,19.81-53.13,55.16-53.13,95.47c0,62.03,50.29,112.32,112.32,112.32S507.9,260.52,507.9,198.49z"/>
<circle cx="422.58" cy="175.81" r="27"/>
</svg>
